# Alias OBJ Model File
# Exported from SketchUp, (c) 2000-2012 Trimble Navigation Limited
# File units = meters

mtllib N.mtl

g Mesh1 UNIVERSITY1 Model

usemtl FrontColor
v 0.153125 0.411111 -0.056102
vt 7.55587 7.35703
vn 4.44089e-16 0 -1
v 0.153125 4.51195e-17 -0.056102
vt 7.55587 0
v 0.0954915 4.51195e-17 -0.056102
vt 8.7837 0
v 0.0954915 0.280833 -0.056102
vt 8.7837 5.02565
v -0.0634085 4.51195e-17 -0.056102
vt 12.1689 0
v -0.127808 4.51195e-17 -0.056102
vt 13.5409 0
v -0.127808 0.411111 -0.056102
vt 13.5409 7.35703
v -0.0701751 0.411111 -0.056102
vt 12.3131 7.35703
v -0.0701751 0.130278 -0.056102
vt 12.3131 2.33138
v 0.0898915 0.411111 -0.056102
vt 8.90301 7.35703
f 1/1/1 2/2/1 3/3/1 4/4/1 5/5/1 6/6/1 7/7/1 8/8/1 9/9/1 10/10/1 

v 0.153125 0.411111 -0.00110199
vt -7.35703 0
vn 1 0 4.44089e-16
v 0.153125 4.51195e-17 -0.00110199
vt 0 0
vt 0 1.9685
vt -7.35703 1.9685
f 11/11/2 12/12/2 2/13/2 1/14/2 

vt -7.55587 0
vn -4.44089e-16 0 1
vt -7.55587 7.35703
v 0.0898915 0.411111 -0.00110199
vt -8.90301 7.35703
v -0.0701751 0.130278 -0.00110199
vt -12.3131 2.33138
v -0.0701751 0.411111 -0.00110199
vt -12.3131 7.35703
v -0.127808 0.411111 -0.00110199
vt -13.5409 7.35703
v -0.127808 4.51195e-17 -0.00110199
vt -13.5409 0
v -0.0634085 4.51195e-17 -0.00110199
vt -12.1689 0
v 0.0954915 0.280833 -0.00110199
vt -8.7837 5.02565
v 0.0954915 4.51195e-17 -0.00110199
vt -8.7837 0
f 12/15/3 11/16/3 13/17/3 14/18/3 15/19/3 16/20/3 17/21/3 18/22/3 19/23/3 20/24/3 

vt -8.90301 0
vn 0 1 -0
vt -7.55587 1.9685
vt -8.90301 1.9685
f 13/25/4 11/15/4 1/26/4 10/27/4 

vt -4.98438 0
vn -0.777907 0.628379 -3.4546e-16
vt 1.089 0
vt 1.089 1.9685
vt -4.98438 1.9685
f 14/28/5 13/29/5 10/30/5 9/31/5 

vt -2.33138 0
vt -2.33138 1.9685
f 15/11/2 14/32/2 9/33/2 8/14/2 

vt -12.3131 0
vt -12.3131 1.9685
vt -13.5409 1.9685
f 16/21/4 15/34/4 8/35/4 7/36/4 

vn -1 0 -4.44089e-16
vt 7.35703 0
vt 7.35703 1.9685
f 17/12/6 16/37/6 7/38/6 6/13/6 

vn 0 -1 -0
vt 13.5409 1.9685
vt 12.1689 1.9685
f 18/5/7 17/6/7 6/39/7 5/40/7 

vt 0.738961 0
vn 0.780148 -0.625595 3.46455e-16
vt 6.79841 0
vt 6.79841 1.9685
vt 0.738961 1.9685
f 19/41/8 18/42/8 5/43/8 4/44/8 

vt 5.02565 0
vt 5.02565 1.9685
f 20/12/6 19/45/6 4/46/6 3/13/6 

vt 8.7837 1.9685
vt 7.55587 1.9685
f 12/2/7 20/3/7 3/47/7 2/48/7 

