# 3ds Max Wavefront OBJ Exporter v0.97b - (c)2007 guruware
# File Created: 14.04.2018 16:44:53

mtllib Nlast.mtl

#
# object Model
#

#
# object UNIVERSITY
#

v  4.8007 0.0000 -2.1103
v  4.8007 5.0257 -2.1103
v  6.0285 7.3570 -2.1103
v  6.0285 0.0000 -2.1103
v  4.8007 0.0000 -0.1418
v  4.8007 5.0257 -0.1418
v  6.0285 0.0000 -0.1418
v  6.0285 7.3570 -0.1418
v  4.6814 7.3570 -2.1103
v  4.6814 7.3570 -0.1418
v  1.4155 0.0000 -2.1103
v  1.4155 0.0000 -0.1418
v  1.2713 2.3314 -0.1418
v  0.0435 0.0000 -0.1418
v  1.2713 2.3314 -2.1103
v  0.0435 0.0000 -2.1103
v  1.2713 7.3570 -0.1418
v  0.0435 7.3570 -0.1418
v  1.2713 7.3570 -2.1103
v  0.0435 7.3570 -2.1103
# 20 vertices

vn 0.0000 0.0000 -1.0000
vn -1.0000 0.0000 -0.0000
vn 0.0000 -1.0000 -0.0000
vn 1.0000 0.0000 -0.0000
vn 0.0000 1.0000 -0.0000
vn 0.8294 -0.5587 -0.0000
vn 0.0000 0.0000 1.0000
vn -0.8275 0.5615 -0.0000
# 8 vertex normals

vt 8.7837 0.0000 0.0000
vt 8.7837 5.0257 0.0000
vt 7.5559 7.3570 0.0000
vt 7.5559 0.0000 0.0000
vt 0.0000 1.9685 0.0000
vt 0.0000 0.0000 0.0000
vt 5.0257 0.0000 0.0000
vt 5.0257 1.9685 0.0000
vt 8.7837 1.9685 0.0000
vt 7.5559 1.9685 0.0000
vt -7.3570 1.9685 0.0000
vt -7.3570 0.0000 0.0000
vt -7.5559 1.9685 0.0000
vt -8.9030 1.9685 0.0000
vt -8.9030 0.0000 0.0000
vt -7.5559 0.0000 0.0000
vt 12.1689 0.0000 0.0000
vt 8.9030 7.3570 0.0000
vt 0.7390 1.9685 0.0000
vt 0.7390 0.0000 0.0000
vt 6.7984 0.0000 0.0000
vt 6.7984 1.9685 0.0000
vt -8.7837 5.0257 0.0000
vt -8.9030 7.3570 0.0000
vt -12.1689 0.0000 0.0000
vt -7.5559 7.3570 0.0000
vt -8.7837 0.0000 0.0000
vt -12.3131 2.3314 0.0000
vt -13.5409 0.0000 0.0000
vt 1.0890 0.0000 0.0000
vt 1.0890 1.9685 0.0000
vt -4.9844 1.9685 0.0000
vt -4.9844 0.0000 0.0000
vt 13.5409 0.0000 0.0000
vt 12.3131 2.3314 0.0000
vt 13.5409 1.9685 0.0000
vt 12.1689 1.9685 0.0000
vt -12.3131 7.3570 0.0000
vt -13.5409 7.3570 0.0000
vt -2.3314 0.0000 0.0000
vt -2.3314 1.9685 0.0000
vt 13.5409 7.3570 0.0000
vt 12.3131 7.3570 0.0000
vt 7.3570 0.0000 0.0000
vt 7.3570 1.9685 0.0000
vt -12.3131 0.0000 0.0000
vt -12.3131 1.9685 0.0000
vt -13.5409 1.9685 0.0000
# 48 texture coords

o UNIVERSITY
g UNIVERSITY
usemtl FrontCol
s off
f 1/1/1 2/2/1 3/3/1 4/4/1 
f 1/5/2 5/6/2 6/7/2 2/8/2 
f 1/9/3 4/10/3 7/4/3 5/1/3 
f 3/11/4 8/12/4 7/6/4 4/5/4 
f 3/13/5 9/14/5 10/15/5 8/16/5 
f 3/3/1 2/2/1 11/17/1 9/18/1 
f 2/19/6 6/20/6 12/21/6 11/22/6 
f 6/23/1 7/16/7 10/24/7 12/25/7 
f 10/24/7 7/16/7 8/26/7 
f 5/27/7 7/16/7 6/23/1 
f 12/25/7 10/24/7 13/28/7 14/29/7 
f 10/30/8 9/31/8 15/32/8 13/33/8 
f 9/18/1 11/17/1 16/34/1 15/35/1 
f 12/17/3 14/34/3 16/36/3 11/37/3 
f 14/29/7 13/28/7 17/38/7 18/39/7 
f 13/40/4 15/41/4 19/11/4 17/12/4 
f 15/35/1 16/34/1 20/42/1 19/43/1 
f 16/5/2 14/6/2 18/44/2 20/45/2 
f 18/29/5 17/46/5 19/47/5 20/48/5 
# 17 polygons - 2 triangles

